<svg aria-hidden="true" style="position: absolute; width: 0; height: 0; overflow: hidden;" version="1.1" xmlns="http://www.w3.org/2000/svg" xmlns:xlink="http://www.w3.org/1999/xlink">
<defs>
<symbol id="icon-icon_image-2" viewBox="0 0 32 32">
<path d="M0 0h32v32h-32v-32z"></path>
</symbol>
<symbol id="icon-icon_Group" viewBox="0 0 32 32">
<path d="M25.333 0l-1.926 6.836-3.852 2.012 3.852 2.011 1.926 6.032 1.926-6.033 3.852-2.011-3.852-2.010-1.926-6.837z"></path>
<path d="M12.444 5.334l-0.889 3.556-2.667 0.889 2.667 0.889 0.889 3.556 0.889-3.556 2.667-0.889-2.667-0.889-0.889-3.556z"></path>
<path d="M0 21.336c0-0.236 0.094-0.462 0.26-0.629s0.393-0.26 0.629-0.26h2.667c0.236 0 0.462 0.094 0.629 0.26s0.26 0.393 0.26 0.629v9.775c0 0.236-0.094 0.462-0.26 0.629s-0.393 0.26-0.629 0.26h-2.667c-0.236 0-0.462-0.094-0.629-0.26s-0.26-0.393-0.26-0.629v-9.775z"></path>
<path d="M10.404 20.615c0.828-0.378 2.853 0 2.853 0l5.89 1.321c0 0 1.473 0.472 2.853 0.472s0.555 1.89-0.369 2.55c-0.923 0.66-1.595 0.624-1.595 0.624l-4.756-0.058c0 0 4.142 0.756 5.707 0.85 0.792 0.048 2.151-0.51 3.671-1.134 1.48-0.608 3.111-1.277 4.519-1.51 2.853-0.471 3.314 2.078 2.393 3.022s-8.283 4.531-9.571 5.003c-1.010 0.37-2.23 0.247-3.607 0.108-0.381-0.038-0.775-0.078-1.179-0.108-1.609-0.122-2.837-0.513-4.053-0.9-1.305-0.414-2.595-0.824-4.322-0.894-0.58-0.023-1.936 0.049-2.618 0.089v-7.878c1.179-0.42 3.565-1.277 4.182-1.558v0.001z"></path>
</symbol>
<symbol id="icon-icon_alarm-clock" viewBox="0 0 32 32">
<path d="M27.973 3.413c-0.854-0.844-1.977-1.363-3.174-1.465s-2.392 0.218-3.377 0.905c3.167 1.319 5.754 3.732 7.289 6.8 0.592-0.973 0.842-2.116 0.708-3.247s-0.643-2.185-1.446-2.993z"></path>
<path d="M10.151 3.049c-0.981-0.779-2.214-1.172-3.465-1.105s-2.434 0.59-3.326 1.47c-0.885 0.891-1.409 2.077-1.471 3.331s0.341 2.486 1.133 3.46c1.426-3.173 3.961-5.717 7.129-7.156z"></path>
<path d="M16 3.556c-2.457 0.005-4.857 0.737-6.899 2.105s-3.633 3.308-4.573 5.578-1.187 4.768-0.71 7.178c0.477 2.41 1.657 4.625 3.391 6.366l-2.267 2.267c-0.082 0.084-0.147 0.183-0.191 0.293s-0.066 0.226-0.065 0.343 0.026 0.234 0.072 0.342c0.046 0.108 0.113 0.206 0.197 0.288s0.183 0.147 0.293 0.191c0.109 0.044 0.226 0.066 0.343 0.065s0.234-0.026 0.342-0.072c0.108-0.046 0.206-0.113 0.289-0.197l2.364-2.364c2.162 1.636 4.803 2.516 7.514 2.503s5.344-0.917 7.49-2.574l2.436 2.436c0.17 0.146 0.389 0.222 0.612 0.213s0.436-0.101 0.594-0.26 0.251-0.37 0.26-0.594c0.009-0.224-0.067-0.442-0.213-0.612l-2.391-2.356c1.71-1.751 2.865-3.967 3.321-6.372s0.194-4.89-0.755-7.146c-0.949-2.256-2.541-4.182-4.579-5.537s-4.43-2.080-6.877-2.083zM22.64 19.049c-0.102 0.212-0.283 0.375-0.505 0.453s-0.465 0.066-0.677-0.035l-6.347-3.076v-7.778c0-0.236 0.094-0.462 0.26-0.629s0.393-0.26 0.629-0.26 0.462 0.094 0.629 0.26c0.167 0.167 0.26 0.393 0.26 0.629v6.667l5.333 2.587c0.106 0.049 0.202 0.118 0.282 0.204s0.141 0.187 0.182 0.297 0.059 0.227 0.054 0.344c-0.005 0.117-0.033 0.232-0.082 0.338h-0.018z"></path>
</symbol>
<symbol id="icon-icon_image-1" viewBox="0 0 31 32">
<path d="M0 0h30.843v32h-30.843v-32z"></path>
</symbol>
</defs>
</svg>
