<svg aria-hidden="true" style="position: absolute; width: 0; height: 0; overflow: hidden;" version="1.1" xmlns="http://www.w3.org/2000/svg" xmlns:xlink="http://www.w3.org/1999/xlink">
<defs>
<symbol id="icon-1" viewBox="0 0 32 32">
<path d="M2.304 29.107c0.022-0.037 0.583-0.928 1.246-1.98l1.206-1.913 1.416-1.426-0.597-0.607c-0.328-0.334-0.628-0.667-0.666-0.739-0.114-0.217-0.094-0.653 0.040-0.867 0.064-0.103 1.208-1.277 2.542-2.609l2.425-2.422-0.932-0.945c-0.812-0.824-0.939-0.976-0.991-1.188-0.099-0.404 0.049-0.895 0.339-1.124 0.33-0.259 0.889-0.285 1.225-0.057 0.095 0.064 2.368 2.309 5.050 4.986l4.877 4.869 7.704-7.705-1.992-1.994-1.429 1.426 0.941 0.946-4.955 4.956-2.884-2.882 4.957-4.957 1.187 1.183 1.427-1.427-1.724-1.724c-0.948-0.948-1.748-1.724-1.777-1.724s-0.363 0.309-0.741 0.686l-0.688 0.686 0.969 0.973-4.957 4.956-2.882-2.882 4.956-4.957 0.567 0.566c0.312 0.311 0.591 0.566 0.621 0.566 0.069 0 1.372-1.304 1.372-1.373 0-0.027-0.398-0.452-0.885-0.942s-0.911-0.959-0.943-1.043c-0.081-0.213-0.072-0.637 0.018-0.852 0.183-0.436 0.735-0.692 1.234-0.572 0.202 0.048 0.561 0.389 3.39 3.21 1.74 1.736 3.177 3.143 3.192 3.127 0.016-0.023 0.079-0.222 0.141-0.455 0.16-0.604 0.197-1.756 0.080-2.469-0.274-1.672-1.020-2.779-2.452-3.64-0.581-0.349-0.704-1.093-0.263-1.595 0.207-0.235 0.464-0.347 0.799-0.347 0.683 0 2.087 1.085 2.822 2.182 0.863 1.287 1.272 2.717 1.272 4.437-0 1.292-0.223 2.352-0.665 3.169l-0.18 0.332 0.911 0.907c0.501 0.499 0.95 0.98 0.997 1.069 0.118 0.222 0.114 0.708-0.007 0.943-0.131 0.255-9.38 9.516-9.637 9.65-0.254 0.133-0.649 0.144-0.93 0.027-0.154-0.064-0.746-0.619-2.061-1.932l-1.846-1.843-2.411 2.403c-1.326 1.322-2.484 2.452-2.573 2.511-0.221 0.149-0.52 0.194-0.791 0.121-0.183-0.048-0.368-0.201-0.96-0.782l-0.732-0.721-1.342 1.346-2.002 1.265c-1.101 0.696-2.018 1.265-2.037 1.265s-0.017-0.030 0.006-0.066l0-0.003z"></path>
</symbol>
<symbol id="icon-2" viewBox="0 0 33 32">
<path d="M29.226 3.413c-0.892-0.844-2.066-1.363-3.316-1.465s-2.499 0.218-3.528 0.905c3.309 1.319 6.012 3.732 7.615 6.8 0.619-0.973 0.879-2.116 0.74-3.247s-0.672-2.185-1.511-2.993z"></path>
<path d="M10.606 3.049c-1.025-0.779-2.313-1.172-3.62-1.105s-2.543 0.59-3.475 1.47c-0.924 0.891-1.472 2.077-1.537 3.331s0.357 2.486 1.184 3.46c1.49-3.173 4.138-5.718 7.448-7.156z"></path>
<path d="M16.716 3.556c-2.567 0.005-5.075 0.737-7.208 2.105s-3.795 3.308-4.777 5.578c-0.982 2.27-1.24 4.768-0.742 7.178s1.731 4.625 3.543 6.366l-2.368 2.267c-0.086 0.084-0.154 0.183-0.2 0.293s-0.069 0.226-0.067 0.343c0.001 0.118 0.027 0.234 0.075 0.342s0.118 0.206 0.206 0.289c0.088 0.082 0.192 0.147 0.306 0.191s0.236 0.066 0.359 0.065 0.244-0.026 0.357-0.072c0.113-0.046 0.215-0.113 0.301-0.197l2.47-2.364c2.259 1.636 5.018 2.516 7.851 2.503s5.583-0.917 7.826-2.574l2.545 2.436c0.178 0.146 0.406 0.222 0.64 0.213s0.455-0.101 0.621-0.26c0.165-0.158 0.262-0.371 0.271-0.594s-0.070-0.442-0.223-0.613l-2.498-2.356c1.786-1.751 2.993-3.967 3.47-6.372s0.203-4.89-0.788-7.146c-0.991-2.256-2.655-4.182-4.784-5.537s-4.628-2.080-7.185-2.083zM23.654 19.049c-0.106 0.212-0.296 0.375-0.528 0.453s-0.486 0.066-0.708-0.035l-6.631-3.076v-7.778c0-0.236 0.098-0.462 0.272-0.629s0.41-0.26 0.657-0.26 0.483 0.094 0.657 0.26c0.174 0.167 0.272 0.393 0.272 0.629v6.667l5.572 2.587c0.111 0.049 0.211 0.118 0.294 0.204s0.148 0.187 0.19 0.297 0.061 0.227 0.056 0.344c-0.005 0.117-0.034 0.232-0.086 0.338h-0.019z"></path>
</symbol>
<symbol id="icon-3" viewBox="0 0 32 32">
<path d="M25.098 0l-1.907 6.836-3.814 2.012 3.814 2.011 1.907 6.032 1.907-6.033 3.814-2.011-3.814-2.010-1.907-6.837z"></path>
<path d="M12.335 5.334l-0.88 3.556-2.641 0.889 2.641 0.889 0.88 3.556 0.88-3.556 2.641-0.889-2.641-0.889-0.88-3.556z"></path>
<path d="M0.011 21.336c0-0.236 0.093-0.462 0.258-0.629s0.389-0.26 0.622-0.26h2.641c0.233 0 0.457 0.094 0.622 0.26s0.258 0.393 0.258 0.629v9.775c0 0.236-0.093 0.462-0.258 0.629s-0.389 0.26-0.622 0.26h-2.641c-0.233 0-0.457-0.094-0.622-0.26s-0.258-0.393-0.258-0.629v-9.775z"></path>
<path d="M10.314 20.615c0.82-0.378 2.826 0 2.826 0l5.832 1.321c0 0 1.459 0.472 2.826 0.472s0.549 1.89-0.365 2.55c-0.914 0.66-1.579 0.624-1.579 0.624l-4.709-0.058c0 0 4.102 0.756 5.651 0.85 0.784 0.048 2.13-0.51 3.635-1.133 1.466-0.608 3.081-1.277 4.475-1.51 2.826-0.471 3.282 2.078 2.37 3.022s-8.202 4.531-9.478 5.003c-1 0.37-2.209 0.247-3.572 0.108-0.378-0.038-0.768-0.078-1.167-0.108-1.593-0.122-2.81-0.513-4.014-0.9-1.292-0.414-2.569-0.824-4.28-0.894-0.574-0.023-1.917 0.049-2.592 0.089v-7.878c1.167-0.42 3.531-1.277 4.142-1.558v0.001z"></path>
</symbol>
<symbol id="icon-4" viewBox="0 0 32 32">
<path d="M7.111 16.889v-7.111h-2.667c-0.707 0-1.386 0.281-1.886 0.781s-0.781 1.178-0.781 1.886v16c0.001 0.165 0.049 0.327 0.137 0.466s0.213 0.252 0.361 0.325c0.143 0.065 0.3 0.091 0.456 0.075s0.305-0.072 0.432-0.164l4.578-3.369h11.947c0.337 0.010 0.672-0.049 0.985-0.174s0.597-0.313 0.835-0.552c0.238-0.239 0.423-0.525 0.546-0.838s0.18-0.65 0.167-0.986v-1.004h-9.778c-1.414 0-2.771-0.562-3.771-1.562s-1.562-2.357-1.562-3.771z"></path>
<path d="M27.556 3.556h-15.111c-0.707 0-1.386 0.281-1.886 0.781s-0.781 1.178-0.781 1.886v10.667c0 0.707 0.281 1.386 0.781 1.886s1.178 0.781 1.886 0.781h12.044l4.249 3.298c0.126 0.093 0.275 0.152 0.431 0.169s0.314-0.007 0.458-0.071c0.151-0.072 0.279-0.185 0.369-0.327s0.137-0.306 0.138-0.473v-15.929c0-0.692-0.268-1.357-0.749-1.855s-1.137-0.789-1.828-0.812z"></path>
</symbol>
</defs>
</svg>
